<?xml version="1.0" encoding="UTF-8"?>
<svg width="1024" height="1024" viewBox="0 0 1024 1024" xmlns="http://www.w3.org/2000/svg">
  <!-- Background circle -->
  <circle cx="512" cy="512" r="512" fill="#E8F5E9"/>
  
  <!-- Heart shape -->
  <path d="M512 864c-8.8 0-17.6-3.2-24.4-9.6C456.8 828.8 256 640 256 448c0-141.2 114.8-256 256-256 70.4 0 134.4 28.8 180.8 75.2C739.2 220.8 803.2 192 873.6 192c141.2 0 256 114.8 256 256 0 192-200.8 380.8-231.6 406.4-6.8 6.4-15.6 9.6-24.4 9.6z" fill="#4CAF50"/>
  
  <!-- Blood drop -->
  <path d="M512 512c-35.2 0-64-28.8-64-64 0-35.2 64-128 64-128s64 92.8 64 128c0 35.2-28.8 64-64 64z" fill="#F44336"/>
  <path d="M512 512c-17.6 0-32-14.4-32-32 0-17.6 32-64 32-64s32 46.4 32 64c0 17.6-14.4 32-32 32z" fill="#FFCDD2"/>
</svg> 